<svg width="395" height="12" viewBox="0 0 395 12" fill="none" xmlns="http://www.w3.org/2000/svg">
<path d="M8.37469 1.27V11H6.77869V6.744H2.20069V11H0.604688V1.27H2.20069V5.442H6.77869V1.27H8.37469ZM13.8218 11.126C13.0938 11.126 12.4358 10.9627 11.8478 10.636C11.2598 10.3 10.7978 9.83333 10.4618 9.236C10.1258 8.62933 9.95778 7.92933 9.95778 7.136C9.95778 6.352 10.1304 5.65667 10.4758 5.05C10.8211 4.44333 11.2924 3.97667 11.8898 3.65C12.4871 3.32333 13.1544 3.16 13.8918 3.16C14.6291 3.16 15.2964 3.32333 15.8938 3.65C16.4911 3.97667 16.9624 4.44333 17.3078 5.05C17.6531 5.65667 17.8258 6.352 17.8258 7.136C17.8258 7.92 17.6484 8.61533 17.2938 9.222C16.9391 9.82867 16.4538 10.3 15.8378 10.636C15.2311 10.9627 14.5591 11.126 13.8218 11.126ZM13.8218 9.74C14.2324 9.74 14.6151 9.642 14.9698 9.446C15.3338 9.25 15.6278 8.956 15.8518 8.564C16.0758 8.172 16.1878 7.696 16.1878 7.136C16.1878 6.576 16.0804 6.10467 15.8658 5.722C15.6511 5.33 15.3664 5.036 15.0118 4.84C14.6571 4.644 14.2744 4.546 13.8638 4.546C13.4531 4.546 13.0704 4.644 12.7158 4.84C12.3704 5.036 12.0951 5.33 11.8898 5.722C11.6844 6.10467 11.5818 6.576 11.5818 7.136C11.5818 7.96667 11.7918 8.61067 12.2118 9.068C12.6411 9.516 13.1778 9.74 13.8218 9.74ZM28.7415 3.16C29.3482 3.16 29.8895 3.286 30.3655 3.538C30.8508 3.79 31.2288 4.16333 31.4995 4.658C31.7795 5.15267 31.9195 5.75 31.9195 6.45V11H30.3375V6.688C30.3375 5.99733 30.1648 5.47 29.8195 5.106C29.4742 4.73267 29.0028 4.546 28.4055 4.546C27.8082 4.546 27.3322 4.73267 26.9775 5.106C26.6322 5.47 26.4595 5.99733 26.4595 6.688V11H24.8775V6.688C24.8775 5.99733 24.7048 5.47 24.3595 5.106C24.0142 4.73267 23.5428 4.546 22.9455 4.546C22.3482 4.546 21.8722 4.73267 21.5175 5.106C21.1722 5.47 20.9995 5.99733 20.9995 6.688V11H19.4035V3.286H20.9995V4.168C21.2608 3.85067 21.5922 3.60333 21.9935 3.426C22.3948 3.24867 22.8242 3.16 23.2815 3.16C23.8975 3.16 24.4482 3.29067 24.9335 3.552C25.4188 3.81333 25.7922 4.19133 26.0535 4.686C26.2868 4.21933 26.6508 3.85067 27.1455 3.58C27.6402 3.3 28.1722 3.16 28.7415 3.16ZM41.0204 6.954C41.0204 7.24333 41.0017 7.50467 40.9644 7.738H35.0704C35.1171 8.354 35.3457 8.84867 35.7564 9.222C36.1671 9.59533 36.6711 9.782 37.2684 9.782C38.1271 9.782 38.7337 9.42267 39.0884 8.704H40.8104C40.5771 9.41333 40.1524 9.99667 39.5364 10.454C38.9297 10.902 38.1737 11.126 37.2684 11.126C36.5311 11.126 35.8684 10.9627 35.2804 10.636C34.7017 10.3 34.2444 9.83333 33.9084 9.236C33.5817 8.62933 33.4184 7.92933 33.4184 7.136C33.4184 6.34267 33.5771 5.64733 33.8944 5.05C34.2211 4.44333 34.6737 3.97667 35.2524 3.65C35.8404 3.32333 36.5124 3.16 37.2684 3.16C37.9964 3.16 38.6451 3.31867 39.2144 3.636C39.7837 3.95333 40.2271 4.40133 40.5444 4.98C40.8617 5.54933 41.0204 6.20733 41.0204 6.954ZM39.3544 6.45C39.3451 5.862 39.1351 5.39067 38.7244 5.036C38.3137 4.68133 37.8051 4.504 37.1984 4.504C36.6477 4.504 36.1764 4.68133 35.7844 5.036C35.3924 5.38133 35.1591 5.85267 35.0844 6.45H39.3544ZM70.2773 9.012H66.2033L65.5033 11H63.8373L67.3233 1.256H69.1713L72.6573 11H70.9773L70.2773 9.012ZM69.8293 7.71L68.2473 3.188L66.6513 7.71H69.8293ZM75.769 4.434C76.0397 4.06067 76.4084 3.75733 76.875 3.524C77.351 3.28133 77.8784 3.16 78.457 3.16C79.1384 3.16 79.7544 3.32333 80.305 3.65C80.8557 3.97667 81.2897 4.44333 81.607 5.05C81.9244 5.64733 82.083 6.33333 82.083 7.108C82.083 7.88267 81.9244 8.578 81.607 9.194C81.2897 9.80067 80.851 10.2767 80.291 10.622C79.7404 10.958 79.129 11.126 78.457 11.126C77.8597 11.126 77.3277 11.0093 76.861 10.776C76.4037 10.5427 76.0397 10.244 75.769 9.88V11H74.173V0.64H75.769V4.434ZM80.459 7.108C80.459 6.576 80.347 6.11867 80.123 5.736C79.9084 5.344 79.619 5.05 79.255 4.854C78.9004 4.64867 78.5177 4.546 78.107 4.546C77.7057 4.546 77.323 4.64867 76.959 4.854C76.6044 5.05933 76.315 5.358 76.091 5.75C75.8764 6.142 75.769 6.604 75.769 7.136C75.769 7.668 75.8764 8.13467 76.091 8.536C76.315 8.928 76.6044 9.22667 76.959 9.432C77.323 9.63733 77.7057 9.74 78.107 9.74C78.5177 9.74 78.9004 9.63733 79.255 9.432C79.619 9.21733 79.9084 8.90933 80.123 8.508C80.347 8.10667 80.459 7.64 80.459 7.108ZM87.0073 11.126C86.2793 11.126 85.6213 10.9627 85.0333 10.636C84.4453 10.3 83.9833 9.83333 83.6473 9.236C83.3113 8.62933 83.1433 7.92933 83.1433 7.136C83.1433 6.352 83.316 5.65667 83.6613 5.05C84.0067 4.44333 84.478 3.97667 85.0753 3.65C85.6727 3.32333 86.34 3.16 87.0773 3.16C87.8147 3.16 88.482 3.32333 89.0793 3.65C89.6767 3.97667 90.148 4.44333 90.4933 5.05C90.8387 5.65667 91.0113 6.352 91.0113 7.136C91.0113 7.92 90.834 8.61533 90.4793 9.222C90.1247 9.82867 89.6393 10.3 89.0233 10.636C88.4167 10.9627 87.7447 11.126 87.0073 11.126ZM87.0073 9.74C87.418 9.74 87.8007 9.642 88.1553 9.446C88.5193 9.25 88.8133 8.956 89.0373 8.564C89.2613 8.172 89.3733 7.696 89.3733 7.136C89.3733 6.576 89.266 6.10467 89.0513 5.722C88.8367 5.33 88.552 5.036 88.1973 4.84C87.8427 4.644 87.46 4.546 87.0493 4.546C86.6387 4.546 86.256 4.644 85.9013 4.84C85.556 5.036 85.2807 5.33 85.0753 5.722C84.87 6.10467 84.7673 6.576 84.7673 7.136C84.7673 7.96667 84.9773 8.61067 85.3973 9.068C85.8267 9.516 86.3633 9.74 87.0073 9.74ZM99.5751 3.286V11H97.9791V10.09C97.7271 10.4073 97.3957 10.6593 96.9851 10.846C96.5837 11.0233 96.1544 11.112 95.6971 11.112C95.0904 11.112 94.5444 10.986 94.0591 10.734C93.5831 10.482 93.2051 10.1087 92.9251 9.614C92.6544 9.11933 92.5191 8.522 92.5191 7.822V3.286H94.1011V7.584C94.1011 8.27467 94.2737 8.80667 94.6191 9.18C94.9644 9.544 95.4357 9.726 96.0331 9.726C96.6304 9.726 97.1017 9.544 97.4471 9.18C97.8017 8.80667 97.9791 8.27467 97.9791 7.584V3.286H99.5751ZM103.543 4.588V8.858C103.543 9.14733 103.608 9.35733 103.739 9.488C103.879 9.60933 104.112 9.67 104.439 9.67H105.419V11H104.159C103.44 11 102.89 10.832 102.507 10.496C102.124 10.16 101.933 9.614 101.933 8.858V4.588H101.023V3.286H101.933V1.368H103.543V3.286H105.419V4.588H103.543ZM117.513 3.286V11H115.917V10.09C115.665 10.4073 115.333 10.6593 114.923 10.846C114.521 11.0233 114.092 11.112 113.635 11.112C113.028 11.112 112.482 10.986 111.997 10.734C111.521 10.482 111.143 10.1087 110.863 9.614C110.592 9.11933 110.457 8.522 110.457 7.822V3.286H112.039V7.584C112.039 8.27467 112.211 8.80667 112.557 9.18C112.902 9.544 113.373 9.726 113.971 9.726C114.568 9.726 115.039 9.544 115.385 9.18C115.739 8.80667 115.917 8.27467 115.917 7.584V3.286H117.513ZM122.418 11.126C121.812 11.126 121.266 11.0187 120.78 10.804C120.304 10.58 119.926 10.2813 119.646 9.908C119.366 9.52533 119.217 9.10067 119.198 8.634H120.85C120.878 8.96067 121.032 9.236 121.312 9.46C121.602 9.67467 121.961 9.782 122.39 9.782C122.838 9.782 123.184 9.698 123.426 9.53C123.678 9.35267 123.804 9.12867 123.804 8.858C123.804 8.56867 123.664 8.354 123.384 8.214C123.114 8.074 122.68 7.92 122.082 7.752C121.504 7.59333 121.032 7.43933 120.668 7.29C120.304 7.14067 119.987 6.912 119.716 6.604C119.455 6.296 119.324 5.89 119.324 5.386C119.324 4.97533 119.446 4.602 119.688 4.266C119.931 3.92067 120.276 3.65 120.724 3.454C121.182 3.258 121.704 3.16 122.292 3.16C123.17 3.16 123.874 3.384 124.406 3.832C124.948 4.27067 125.237 4.87267 125.274 5.638H123.678C123.65 5.29267 123.51 5.01733 123.258 4.812C123.006 4.60667 122.666 4.504 122.236 4.504C121.816 4.504 121.494 4.58333 121.27 4.742C121.046 4.90067 120.934 5.11067 120.934 5.372C120.934 5.57733 121.009 5.75 121.158 5.89C121.308 6.03 121.49 6.142 121.704 6.226C121.919 6.30067 122.236 6.39867 122.656 6.52C123.216 6.66933 123.674 6.82333 124.028 6.982C124.392 7.13133 124.705 7.35533 124.966 7.654C125.228 7.95267 125.363 8.34933 125.372 8.844C125.372 9.28267 125.251 9.67467 125.008 10.02C124.766 10.3653 124.42 10.636 123.972 10.832C123.534 11.028 123.016 11.126 122.418 11.126ZM156.687 1.27V11H155.091V6.744H150.513V11H148.917V1.27H150.513V5.442H155.091V1.27H156.687ZM162.134 11.126C161.406 11.126 160.748 10.9627 160.16 10.636C159.572 10.3 159.11 9.83333 158.774 9.236C158.438 8.62933 158.27 7.92933 158.27 7.136C158.27 6.352 158.443 5.65667 158.788 5.05C159.134 4.44333 159.605 3.97667 160.202 3.65C160.8 3.32333 161.467 3.16 162.204 3.16C162.942 3.16 163.609 3.32333 164.206 3.65C164.804 3.97667 165.275 4.44333 165.62 5.05C165.966 5.65667 166.138 6.352 166.138 7.136C166.138 7.92 165.961 8.61533 165.606 9.222C165.252 9.82867 164.766 10.3 164.15 10.636C163.544 10.9627 162.872 11.126 162.134 11.126ZM162.134 9.74C162.545 9.74 162.928 9.642 163.282 9.446C163.646 9.25 163.94 8.956 164.164 8.564C164.388 8.172 164.5 7.696 164.5 7.136C164.5 6.576 164.393 6.10467 164.178 5.722C163.964 5.33 163.679 5.036 163.324 4.84C162.97 4.644 162.587 4.546 162.176 4.546C161.766 4.546 161.383 4.644 161.028 4.84C160.683 5.036 160.408 5.33 160.202 5.722C159.997 6.10467 159.894 6.576 159.894 7.136C159.894 7.96667 160.104 8.61067 160.524 9.068C160.954 9.516 161.49 9.74 162.134 9.74ZM178.076 3.286L175.682 11H174.002L172.448 5.302L170.894 11H169.214L166.806 3.286H168.43L170.04 9.488L171.678 3.286H173.344L174.912 9.46L176.508 3.286H178.076ZM183.717 2.264C183.428 2.264 183.185 2.166 182.989 1.97C182.793 1.774 182.695 1.53133 182.695 1.242C182.695 0.952666 182.793 0.71 182.989 0.514C183.185 0.318 183.428 0.219999 183.717 0.219999C183.997 0.219999 184.235 0.318 184.431 0.514C184.627 0.71 184.725 0.952666 184.725 1.242C184.725 1.53133 184.627 1.774 184.431 1.97C184.235 2.166 183.997 2.264 183.717 2.264ZM184.501 3.286V11H182.905V3.286H184.501ZM188.459 4.588V8.858C188.459 9.14733 188.524 9.35733 188.655 9.488C188.795 9.60933 189.028 9.67 189.355 9.67H190.335V11H189.075C188.356 11 187.806 10.832 187.423 10.496C187.04 10.16 186.849 9.614 186.849 8.858V4.588H185.939V3.286H186.849V1.368H188.459V3.286H190.335V4.588H188.459ZM205.803 3.286L203.409 11H201.729L200.175 5.302L198.621 11H196.941L194.533 3.286H196.157L197.767 9.488L199.405 3.286H201.071L202.639 9.46L204.235 3.286H205.803ZM210.341 11.126C209.613 11.126 208.955 10.9627 208.367 10.636C207.779 10.3 207.317 9.83333 206.981 9.236C206.645 8.62933 206.477 7.92933 206.477 7.136C206.477 6.352 206.65 5.65667 206.995 5.05C207.341 4.44333 207.812 3.97667 208.409 3.65C209.007 3.32333 209.674 3.16 210.411 3.16C211.149 3.16 211.816 3.32333 212.413 3.65C213.011 3.97667 213.482 4.44333 213.827 5.05C214.173 5.65667 214.345 6.352 214.345 7.136C214.345 7.92 214.168 8.61533 213.813 9.222C213.459 9.82867 212.973 10.3 212.357 10.636C211.751 10.9627 211.079 11.126 210.341 11.126ZM210.341 9.74C210.752 9.74 211.135 9.642 211.489 9.446C211.853 9.25 212.147 8.956 212.371 8.564C212.595 8.172 212.707 7.696 212.707 7.136C212.707 6.576 212.6 6.10467 212.385 5.722C212.171 5.33 211.886 5.036 211.531 4.84C211.177 4.644 210.794 4.546 210.383 4.546C209.973 4.546 209.59 4.644 209.235 4.84C208.89 5.036 208.615 5.33 208.409 5.722C208.204 6.10467 208.101 6.576 208.101 7.136C208.101 7.96667 208.311 8.61067 208.731 9.068C209.161 9.516 209.697 9.74 210.341 9.74ZM217.519 4.406C217.752 4.014 218.06 3.71067 218.443 3.496C218.835 3.272 219.297 3.16 219.829 3.16V4.812H219.423C218.798 4.812 218.322 4.97067 217.995 5.288C217.678 5.60533 217.519 6.156 217.519 6.94V11H215.923V3.286H217.519V4.406ZM224.348 7.15L227.904 11H225.748L222.892 7.682V11H221.296V0.64H222.892V6.66L225.692 3.286H227.904L224.348 7.15ZM231.848 11.126C231.241 11.126 230.695 11.0187 230.21 10.804C229.734 10.58 229.356 10.2813 229.076 9.908C228.796 9.52533 228.647 9.10067 228.628 8.634H230.28C230.308 8.96067 230.462 9.236 230.742 9.46C231.031 9.67467 231.391 9.782 231.82 9.782C232.268 9.782 232.613 9.698 232.856 9.53C233.108 9.35267 233.234 9.12867 233.234 8.858C233.234 8.56867 233.094 8.354 232.814 8.214C232.543 8.074 232.109 7.92 231.512 7.752C230.933 7.59333 230.462 7.43933 230.098 7.29C229.734 7.14067 229.417 6.912 229.146 6.604C228.885 6.296 228.754 5.89 228.754 5.386C228.754 4.97533 228.875 4.602 229.118 4.266C229.361 3.92067 229.706 3.65 230.154 3.454C230.611 3.258 231.134 3.16 231.722 3.16C232.599 3.16 233.304 3.384 233.836 3.832C234.377 4.27067 234.667 4.87267 234.704 5.638H233.108C233.08 5.29267 232.94 5.01733 232.688 4.812C232.436 4.60667 232.095 4.504 231.666 4.504C231.246 4.504 230.924 4.58333 230.7 4.742C230.476 4.90067 230.364 5.11067 230.364 5.372C230.364 5.57733 230.439 5.75 230.588 5.89C230.737 6.03 230.919 6.142 231.134 6.226C231.349 6.30067 231.666 6.39867 232.086 6.52C232.646 6.66933 233.103 6.82333 233.458 6.982C233.822 7.13133 234.135 7.35533 234.396 7.654C234.657 7.95267 234.793 8.34933 234.802 8.844C234.802 9.28267 234.681 9.67467 234.438 10.02C234.195 10.3653 233.85 10.636 233.402 10.832C232.963 11.028 232.445 11.126 231.848 11.126ZM261.553 11.098C260.9 11.098 260.312 10.986 259.789 10.762C259.266 10.5287 258.856 10.202 258.557 9.782C258.258 9.362 258.109 8.872 258.109 8.312H259.817C259.854 8.732 260.018 9.07733 260.307 9.348C260.606 9.61867 261.021 9.754 261.553 9.754C262.104 9.754 262.533 9.62333 262.841 9.362C263.149 9.09133 263.303 8.746 263.303 8.326C263.303 7.99933 263.205 7.73333 263.009 7.528C262.822 7.32267 262.584 7.164 262.295 7.052C262.015 6.94 261.623 6.81867 261.119 6.688C260.484 6.52 259.966 6.352 259.565 6.184C259.173 6.00667 258.837 5.736 258.557 5.372C258.277 5.008 258.137 4.52267 258.137 3.916C258.137 3.356 258.277 2.866 258.557 2.446C258.837 2.026 259.229 1.704 259.733 1.48C260.237 1.256 260.82 1.144 261.483 1.144C262.426 1.144 263.196 1.382 263.793 1.858C264.4 2.32467 264.736 2.96867 264.801 3.79H263.037C263.009 3.43533 262.841 3.132 262.533 2.88C262.225 2.628 261.819 2.502 261.315 2.502C260.858 2.502 260.484 2.61867 260.195 2.852C259.906 3.08533 259.761 3.42133 259.761 3.86C259.761 4.15867 259.85 4.406 260.027 4.602C260.214 4.78867 260.447 4.938 260.727 5.05C261.007 5.162 261.39 5.28333 261.875 5.414C262.519 5.59133 263.042 5.76867 263.443 5.946C263.854 6.12333 264.199 6.39867 264.479 6.772C264.768 7.136 264.913 7.626 264.913 8.242C264.913 8.73667 264.778 9.20333 264.507 9.642C264.246 10.0807 263.858 10.4353 263.345 10.706C262.841 10.9673 262.244 11.098 261.553 11.098ZM273.866 6.954C273.866 7.24333 273.847 7.50467 273.81 7.738H267.916C267.963 8.354 268.191 8.84867 268.602 9.222C269.013 9.59533 269.517 9.782 270.114 9.782C270.973 9.782 271.579 9.42267 271.934 8.704H273.656C273.423 9.41333 272.998 9.99667 272.382 10.454C271.775 10.902 271.019 11.126 270.114 11.126C269.377 11.126 268.714 10.9627 268.126 10.636C267.547 10.3 267.09 9.83333 266.754 9.236C266.427 8.62933 266.264 7.92933 266.264 7.136C266.264 6.34267 266.423 5.64733 266.74 5.05C267.067 4.44333 267.519 3.97667 268.098 3.65C268.686 3.32333 269.358 3.16 270.114 3.16C270.842 3.16 271.491 3.31867 272.06 3.636C272.629 3.95333 273.073 4.40133 273.39 4.98C273.707 5.54933 273.866 6.20733 273.866 6.954ZM272.2 6.45C272.191 5.862 271.981 5.39067 271.57 5.036C271.159 4.68133 270.651 4.504 270.044 4.504C269.493 4.504 269.022 4.68133 268.63 5.036C268.238 5.38133 268.005 5.85267 267.93 6.45H272.2ZM277.033 4.406C277.266 4.014 277.574 3.71067 277.957 3.496C278.349 3.272 278.811 3.16 279.343 3.16V4.812H278.937C278.311 4.812 277.835 4.97067 277.509 5.288C277.191 5.60533 277.033 6.156 277.033 6.94V11H275.437V3.286H277.033V4.406ZM283.792 9.572L285.976 3.286H287.67L284.73 11H282.826L279.9 3.286H281.608L283.792 9.572ZM289.688 2.264C289.399 2.264 289.156 2.166 288.96 1.97C288.764 1.774 288.666 1.53133 288.666 1.242C288.666 0.952666 288.764 0.71 288.96 0.514C289.156 0.318 289.399 0.219999 289.688 0.219999C289.968 0.219999 290.206 0.318 290.402 0.514C290.598 0.71 290.696 0.952666 290.696 1.242C290.696 1.53133 290.598 1.774 290.402 1.97C290.206 2.166 289.968 2.264 289.688 2.264ZM290.472 3.286V11H288.876V3.286H290.472ZM292.036 7.136C292.036 6.34267 292.194 5.64733 292.512 5.05C292.838 4.44333 293.286 3.97667 293.856 3.65C294.425 3.32333 295.078 3.16 295.816 3.16C296.749 3.16 297.519 3.384 298.126 3.832C298.742 4.27067 299.157 4.90067 299.372 5.722H297.65C297.51 5.33933 297.286 5.04067 296.978 4.826C296.67 4.61133 296.282 4.504 295.816 4.504C295.162 4.504 294.64 4.73733 294.248 5.204C293.865 5.66133 293.674 6.30533 293.674 7.136C293.674 7.96667 293.865 8.61533 294.248 9.082C294.64 9.54867 295.162 9.782 295.816 9.782C296.74 9.782 297.351 9.376 297.65 8.564H299.372C299.148 9.348 298.728 9.97333 298.112 10.44C297.496 10.8973 296.73 11.126 295.816 11.126C295.078 11.126 294.425 10.9627 293.856 10.636C293.286 10.3 292.838 9.83333 292.512 9.236C292.194 8.62933 292.036 7.92933 292.036 7.136ZM308.032 6.954C308.032 7.24333 308.013 7.50467 307.976 7.738H302.082C302.129 8.354 302.357 8.84867 302.768 9.222C303.179 9.59533 303.683 9.782 304.28 9.782C305.139 9.782 305.745 9.42267 306.1 8.704H307.822C307.589 9.41333 307.164 9.99667 306.548 10.454C305.941 10.902 305.185 11.126 304.28 11.126C303.543 11.126 302.88 10.9627 302.292 10.636C301.713 10.3 301.256 9.83333 300.92 9.236C300.593 8.62933 300.43 7.92933 300.43 7.136C300.43 6.34267 300.589 5.64733 300.906 5.05C301.233 4.44333 301.685 3.97667 302.264 3.65C302.852 3.32333 303.524 3.16 304.28 3.16C305.008 3.16 305.657 3.31867 306.226 3.636C306.795 3.95333 307.239 4.40133 307.556 4.98C307.873 5.54933 308.032 6.20733 308.032 6.954ZM306.366 6.45C306.357 5.862 306.147 5.39067 305.736 5.036C305.325 4.68133 304.817 4.504 304.21 4.504C303.659 4.504 303.188 4.68133 302.796 5.036C302.404 5.38133 302.171 5.85267 302.096 6.45H306.366ZM312.403 11.126C311.796 11.126 311.25 11.0187 310.765 10.804C310.289 10.58 309.911 10.2813 309.631 9.908C309.351 9.52533 309.201 9.10067 309.183 8.634H310.835C310.863 8.96067 311.017 9.236 311.297 9.46C311.586 9.67467 311.945 9.782 312.375 9.782C312.823 9.782 313.168 9.698 313.411 9.53C313.663 9.35267 313.789 9.12867 313.789 8.858C313.789 8.56867 313.649 8.354 313.369 8.214C313.098 8.074 312.664 7.92 312.067 7.752C311.488 7.59333 311.017 7.43933 310.653 7.29C310.289 7.14067 309.971 6.912 309.701 6.604C309.439 6.296 309.309 5.89 309.309 5.386C309.309 4.97533 309.43 4.602 309.673 4.266C309.915 3.92067 310.261 3.65 310.709 3.454C311.166 3.258 311.689 3.16 312.277 3.16C313.154 3.16 313.859 3.384 314.391 3.832C314.932 4.27067 315.221 4.87267 315.259 5.638H313.663C313.635 5.29267 313.495 5.01733 313.243 4.812C312.991 4.60667 312.65 4.504 312.221 4.504C311.801 4.504 311.479 4.58333 311.255 4.742C311.031 4.90067 310.919 5.11067 310.919 5.372C310.919 5.57733 310.993 5.75 311.143 5.89C311.292 6.03 311.474 6.142 311.689 6.226C311.903 6.30067 312.221 6.39867 312.641 6.52C313.201 6.66933 313.658 6.82333 314.013 6.982C314.377 7.13133 314.689 7.35533 314.951 7.654C315.212 7.95267 315.347 8.34933 315.357 8.844C315.357 9.28267 315.235 9.67467 314.993 10.02C314.75 10.3653 314.405 10.636 313.957 10.832C313.518 11.028 313 11.126 312.403 11.126ZM338.37 6.114C338.37 5.162 338.589 4.308 339.028 3.552C339.476 2.796 340.078 2.208 340.834 1.788C341.599 1.35867 342.434 1.144 343.34 1.144C344.376 1.144 345.295 1.40067 346.098 1.914C346.91 2.418 347.498 3.13667 347.862 4.07H345.944C345.692 3.55667 345.342 3.174 344.894 2.922C344.446 2.67 343.928 2.544 343.34 2.544C342.696 2.544 342.122 2.68867 341.618 2.978C341.114 3.26733 340.717 3.68267 340.428 4.224C340.148 4.76533 340.008 5.39533 340.008 6.114C340.008 6.83267 340.148 7.46267 340.428 8.004C340.717 8.54533 341.114 8.96533 341.618 9.264C342.122 9.55333 342.696 9.698 343.34 9.698C343.928 9.698 344.446 9.572 344.894 9.32C345.342 9.068 345.692 8.68533 345.944 8.172H347.862C347.498 9.10533 346.91 9.824 346.098 10.328C345.295 10.832 344.376 11.084 343.34 11.084C342.425 11.084 341.59 10.874 340.834 10.454C340.078 10.0247 339.476 9.432 339.028 8.676C338.589 7.92 338.37 7.066 338.37 6.114ZM353.076 11.126C352.348 11.126 351.69 10.9627 351.102 10.636C350.514 10.3 350.052 9.83333 349.716 9.236C349.38 8.62933 349.212 7.92933 349.212 7.136C349.212 6.352 349.384 5.65667 349.73 5.05C350.075 4.44333 350.546 3.97667 351.144 3.65C351.741 3.32333 352.408 3.16 353.146 3.16C353.883 3.16 354.55 3.32333 355.148 3.65C355.745 3.97667 356.216 4.44333 356.562 5.05C356.907 5.65667 357.08 6.352 357.08 7.136C357.08 7.92 356.902 8.61533 356.548 9.222C356.193 9.82867 355.708 10.3 355.092 10.636C354.485 10.9627 353.813 11.126 353.076 11.126ZM353.076 9.74C353.486 9.74 353.869 9.642 354.224 9.446C354.588 9.25 354.882 8.956 355.106 8.564C355.33 8.172 355.442 7.696 355.442 7.136C355.442 6.576 355.334 6.10467 355.12 5.722C354.905 5.33 354.62 5.036 354.266 4.84C353.911 4.644 353.528 4.546 353.118 4.546C352.707 4.546 352.324 4.644 351.97 4.84C351.624 5.036 351.349 5.33 351.144 5.722C350.938 6.10467 350.836 6.576 350.836 7.136C350.836 7.96667 351.046 8.61067 351.466 9.068C351.895 9.516 352.432 9.74 353.076 9.74ZM362.549 3.16C363.156 3.16 363.697 3.286 364.173 3.538C364.659 3.79 365.037 4.16333 365.307 4.658C365.578 5.15267 365.713 5.75 365.713 6.45V11H364.131V6.688C364.131 5.99733 363.959 5.47 363.613 5.106C363.268 4.73267 362.797 4.546 362.199 4.546C361.602 4.546 361.126 4.73267 360.771 5.106C360.426 5.47 360.253 5.99733 360.253 6.688V11H358.657V3.286H360.253V4.168C360.515 3.85067 360.846 3.60333 361.247 3.426C361.658 3.24867 362.092 3.16 362.549 3.16ZM369.611 4.588V8.858C369.611 9.14733 369.677 9.35733 369.807 9.488C369.947 9.60933 370.181 9.67 370.507 9.67H371.487V11H370.227C369.509 11 368.958 10.832 368.575 10.496C368.193 10.16 368.001 9.614 368.001 8.858V4.588H367.091V3.286H368.001V1.368H369.611V3.286H371.487V4.588H369.611ZM372.426 7.108C372.426 6.33333 372.585 5.64733 372.902 5.05C373.229 4.45267 373.668 3.99067 374.218 3.664C374.778 3.328 375.394 3.16 376.066 3.16C376.673 3.16 377.2 3.28133 377.648 3.524C378.106 3.75733 378.47 4.05133 378.74 4.406V3.286H380.35V11H378.74V9.852C378.47 10.216 378.101 10.5193 377.634 10.762C377.168 11.0047 376.636 11.126 376.038 11.126C375.376 11.126 374.769 10.958 374.218 10.622C373.668 10.2767 373.229 9.80067 372.902 9.194C372.585 8.578 372.426 7.88267 372.426 7.108ZM378.74 7.136C378.74 6.604 378.628 6.142 378.404 5.75C378.19 5.358 377.905 5.05933 377.55 4.854C377.196 4.64867 376.813 4.546 376.402 4.546C375.992 4.546 375.609 4.64867 375.254 4.854C374.9 5.05 374.61 5.344 374.386 5.736C374.172 6.11867 374.064 6.576 374.064 7.108C374.064 7.64 374.172 8.10667 374.386 8.508C374.61 8.90933 374.9 9.21733 375.254 9.432C375.618 9.63733 376.001 9.74 376.402 9.74C376.813 9.74 377.196 9.63733 377.55 9.432C377.905 9.22667 378.19 8.928 378.404 8.536C378.628 8.13467 378.74 7.668 378.74 7.136ZM381.914 7.136C381.914 6.34267 382.073 5.64733 382.39 5.05C382.717 4.44333 383.165 3.97667 383.734 3.65C384.304 3.32333 384.957 3.16 385.694 3.16C386.628 3.16 387.398 3.384 388.004 3.832C388.62 4.27067 389.036 4.90067 389.25 5.722H387.528C387.388 5.33933 387.164 5.04067 386.856 4.826C386.548 4.61133 386.161 4.504 385.694 4.504C385.041 4.504 384.518 4.73733 384.126 5.204C383.744 5.66133 383.552 6.30533 383.552 7.136C383.552 7.96667 383.744 8.61533 384.126 9.082C384.518 9.54867 385.041 9.782 385.694 9.782C386.618 9.782 387.23 9.376 387.528 8.564H389.25C389.026 9.348 388.606 9.97333 387.99 10.44C387.374 10.8973 386.609 11.126 385.694 11.126C384.957 11.126 384.304 10.9627 383.734 10.636C383.165 10.3 382.717 9.83333 382.39 9.236C382.073 8.62933 381.914 7.92933 381.914 7.136ZM392.703 4.588V8.858C392.703 9.14733 392.768 9.35733 392.899 9.488C393.039 9.60933 393.272 9.67 393.599 9.67H394.579V11H393.319C392.6 11 392.05 10.832 391.667 10.496C391.284 10.16 391.093 9.614 391.093 8.858V4.588H390.183V3.286H391.093V1.368H392.703V3.286H394.579V4.588H392.703Z" fill="#171A31"/>
</svg>
